<svg width="22" height="22" viewBox="0 0 22 22" fill="none" xmlns="http://www.w3.org/2000/svg">
<path d="M10.6562 0.09375C16.5 0.09375 21.3125 4.90625 21.3125 10.75C21.3125 16.6367 16.5 21.4062 10.6562 21.4062C4.76953 21.4062 0 16.6367 0 10.75C0 4.90625 4.76953 0.09375 10.6562 0.09375ZM15.5547 7.35547C15.5977 7.22656 15.5977 7.09766 15.5547 6.92578C15.5547 6.83984 15.4688 6.71094 15.4258 6.66797C15.2969 6.53906 15.082 6.53906 14.9961 6.53906C14.6094 6.53906 13.9648 6.75391 11 8C9.96875 8.42969 7.90625 9.28906 4.8125 10.6641C4.29688 10.8789 4.03906 11.0508 3.99609 11.2656C3.95312 11.6094 4.51172 11.7383 5.15625 11.9531C5.71484 12.125 6.44531 12.3398 6.83203 12.3398C7.17578 12.3398 7.5625 12.2109 7.99219 11.9102C10.8711 9.93359 12.375 8.94531 12.4609 8.94531C12.5469 8.94531 12.6328 8.90234 12.6758 8.94531C12.7617 9.03125 12.7617 9.11719 12.7188 9.16016C12.6758 9.375 9.96875 11.8672 9.79688 12.0391C9.19531 12.6406 8.50781 13.0273 9.58203 13.7148C10.4844 14.3164 11 14.7031 11.9453 15.3047C12.5469 15.6914 13.0195 16.1641 13.6211 16.1211C13.9219 16.0781 14.2227 15.8203 14.3516 15.0039C14.7383 13.1562 15.4258 9.03125 15.5547 7.35547Z" fill="#171E30"/>
</svg>
