<svg width="20" height="20" viewBox="0 0 20 20" fill="none" xmlns="http://www.w3.org/2000/svg">
<path d="M1.33203 1.5C2.66406 0.125 4.85547 0.125 9.23828 0.125H9.96875C14.3516 0.125 16.543 0.125 17.875 1.5C19.25 2.83203 19.25 5.02344 19.25 9.40625V10.1367C19.25 14.5195 19.25 16.7109 17.875 18.043C16.543 19.375 14.3516 19.375 9.96875 19.375H9.23828C4.85547 19.375 2.66406 19.375 1.33203 18.043C0 16.7109 0 14.5195 0 10.1367V9.40625C0 5.02344 0 2.83203 1.33203 1.5ZM3.22266 6.01172C3.35156 10.9961 5.84375 14.0039 10.2266 14.0039H10.4844V11.168C11.2578 11.2539 11.9883 11.5547 12.5469 12.0703C13.1484 12.5859 13.5781 13.2734 13.793 14.0039H16.0703C15.8555 13.1445 15.4258 12.3281 14.8672 11.6406C14.2656 10.9531 13.5781 10.3945 12.7617 10.0078C13.4922 9.57812 14.0938 8.97656 14.6094 8.28906C15.082 7.60156 15.4258 6.82812 15.5977 6.01172H13.5352C13.0625 7.60156 11.7305 9.01953 10.4844 9.14844V6.01172H8.42188V11.5547C7.13281 11.2109 5.5 9.66406 5.41406 6.01172H3.22266Z" fill="#171E30"/>
</svg>
