<svg width="20" height="20" viewBox="0 0 20 20" fill="none" xmlns="http://www.w3.org/2000/svg">
	<path
		d="M16.3281 2.96094C18.1328 4.76562 19.25 7.12891 19.25 9.70703C19.25 14.9492 14.8672 19.2461 9.58203 19.2461C7.99219 19.2461 6.44531 18.8164 5.02734 18.0859L0 19.375L1.33203 14.4336C0.515625 13.0156 0.0429688 11.3828 0.0429688 9.66406C0.0429688 4.42188 4.33984 0.125 9.58203 0.125C12.1602 0.125 14.5664 1.15625 16.3281 2.96094ZM9.58203 17.6133C13.9648 17.6133 17.6172 14.0469 17.6172 9.70703C17.6172 7.55859 16.7148 5.58203 15.2109 4.07812C13.707 2.57422 11.7305 1.75781 9.625 1.75781C5.24219 1.75781 1.67578 5.32422 1.67578 9.66406C1.67578 11.168 2.10547 12.6289 2.87891 13.918L3.09375 14.2188L2.27734 17.1406L5.28516 16.3242L5.54297 16.4961C6.78906 17.2266 8.16406 17.6133 9.58203 17.6133ZM13.9648 11.6836C14.1797 11.8125 14.3516 11.8555 14.3945 11.9844C14.4805 12.0703 14.4805 12.543 14.2656 13.1016C14.0508 13.6602 13.1055 14.1758 12.6758 14.2188C11.9023 14.3477 11.3008 14.3047 9.79688 13.6172C7.39062 12.5859 5.84375 10.1797 5.71484 10.0508C5.58594 9.87891 4.76953 8.76172 4.76953 7.55859C4.76953 6.39844 5.37109 5.83984 5.58594 5.58203C5.80078 5.32422 6.05859 5.28125 6.23047 5.28125C6.35938 5.28125 6.53125 5.28125 6.66016 5.28125C6.83203 5.28125 7.00391 5.23828 7.21875 5.71094C7.39062 6.18359 7.90625 7.34375 7.94922 7.47266C7.99219 7.60156 8.03516 7.73047 7.94922 7.90234C7.51953 8.80469 7.00391 8.76172 7.26172 9.19141C8.20703 10.7812 9.10938 11.3398 10.5273 12.0273C10.7422 12.1562 10.8711 12.1133 11.043 11.9844C11.1719 11.8125 11.6445 11.2539 11.7734 11.0391C11.9453 10.7812 12.1172 10.8242 12.332 10.9102C12.5469 10.9961 13.707 11.5547 13.9648 11.6836Z"
		fill="#171E30" />
</svg>