<svg width="152" height="60" viewBox="0 0 152 60" fill="none" xmlns="http://www.w3.org/2000/svg">
	<path fill-rule="evenodd" clip-rule="evenodd"
		d="M13.7437 43.6743H38.0074V25.8649H13.7437V43.6743Z" fill="#ED1C24" />
	<path fill-rule="evenodd" clip-rule="evenodd"
		d="M38.0072 43.6744L25.8781 52.575L13.7437 43.6744H38.0072Z" fill="white" />
	<path fill-rule="evenodd" clip-rule="evenodd"
		d="M38.0072 25.8653L13.7437 43.6743V25.8653H38.0072Z" fill="#C72121" />
	<path fill-rule="evenodd" clip-rule="evenodd"
		d="M22.7053 37.0967H29.0465V30.9439H22.7053V37.0967Z" fill="white" />
	<path fill-rule="evenodd" clip-rule="evenodd"
		d="M41.0557 25.8655V23.942L25.8782 12.8L10.6963 23.942V25.8655H41.0557Z" fill="#ED1C24" />
	<path fill-rule="evenodd" clip-rule="evenodd"
		d="M30.8469 16.4513L25.8782 12.8L10.6963 23.942V25.8655H18.0235L30.8469 16.4513Z" fill="#C72121" />
	<path fill-rule="evenodd" clip-rule="evenodd"
		d="M40.9773 48.915L44.5474 46.2988L42.7623 44.9864L39.1867 47.6111L40.9773 48.915ZM35.6176 52.8517L39.1867 50.2272L37.4017 48.9232L33.8267 51.5395L35.6176 52.8517ZM30.2568 56.7885L33.8267 54.164L32.0416 52.8517L28.4668 55.4764L30.2568 56.7885ZM10.7743 48.915L7.20435 46.2988L8.98933 44.9864L12.5643 47.6111L10.7743 48.915ZM16.1342 52.8517L12.5643 50.2272L14.3493 48.9232L17.9241 51.5395L16.1342 52.8517ZM21.494 56.7885L17.9241 54.164L19.709 52.8517L23.2848 55.4764L21.494 56.7885ZM25.8781 60L28.4668 58.1009L26.6819 56.7885L25.8781 57.3835L25.0697 56.7885L23.2848 58.1009L25.8781 60Z"
		fill="white" />
	<path fill-rule="evenodd" clip-rule="evenodd"
		d="M47.3965 39.2406V15.6282L29.1035 2.20405H29.9804L49.6308 12.3189V40.8788L47.3965 39.2406ZM4.35483 15.6282V39.2406L2.1208 40.8788V12.3189L21.7712 2.20405H22.6474L4.35483 15.6282ZM24.8185 3.23925C24.8185 6.16553 24.8185 9.09116 24.8185 12.0254L25.8781 12.7999L26.9376 12.0254C26.9376 9.09116 26.9376 6.16553 26.9376 3.23925L45.2775 16.6958V41.5879L38.0072 36.2493V38.8736L46.337 44.9866L47.3965 44.2042V41.8569L50.6903 44.2776L51.7493 43.5031C51.7493 32.6792 51.755 21.8553 51.7493 11.0311L30.4819 0.0852127H21.27L0.00250473 11.0311C-0.00313091 21.8553 0.00250473 32.6792 0.00250473 43.5031L1.06125 44.2776L4.35483 41.8569V44.2042L5.41437 44.9866L13.7436 38.8736V36.2493L6.47332 41.5879V16.6958L24.8185 3.23925Z"
		fill="white" />
	<path fill-rule="evenodd" clip-rule="evenodd"
		d="M15.6329 0.0851831L15.6388 7.34705L10.6963 10.9741V0.0851831L13.1642 1.89382L15.6329 0.0851831Z"
		fill="#ED1C24" />
	<path fill-rule="evenodd" clip-rule="evenodd"
		d="M10.6963 7.90923V10.9741L15.6388 7.34705L15.6329 5.36631L10.6963 7.90923Z" fill="#C72121" />
	<path fill-rule="evenodd" clip-rule="evenodd"
		d="M69.0273 16.9953L70.5886 22.2167H74.6836L70.8957 12.9258L74.428 4.40275H70.3325L69.1041 8.80511H68.9505L67.6453 4.40275H63.5756L67.0054 12.9258L63.3201 22.2167H67.3635L68.9248 16.9953H69.0273ZM81.4662 18.019C81.4662 18.4286 81.3637 18.7102 81.1849 18.8638C80.9798 19.0429 80.7237 19.1196 80.4424 19.1196C80.161 19.1196 79.9049 19.0429 79.7004 18.8638C79.4953 18.7102 79.3933 18.4286 79.3933 18.019V8.60024C79.3933 8.21635 79.4953 7.93501 79.7004 7.75569C79.9049 7.57637 80.161 7.49959 80.4424 7.49959C80.7237 7.49959 80.9798 7.57637 81.1849 7.75569C81.3637 7.93501 81.4662 8.21635 81.4662 8.60024V18.019ZM84.9985 8.72823C84.9985 7.19249 84.6399 6.0666 83.8979 5.32408C83.1553 4.60732 82.0037 4.2492 80.4424 4.2492C79.0346 4.2492 77.9087 4.60732 77.1152 5.32408C76.3222 6.0666 75.9125 7.19249 75.9125 8.72823V17.8656C75.9125 20.8601 77.4223 22.3701 80.4424 22.3701C81.9527 22.3701 83.0786 22.0118 83.8463 21.2697C84.6141 20.5274 84.9985 19.4014 84.9985 17.8656V8.72823ZM87.4554 4.40275V22.2167H90.9366V15.6902H91.7554C93.4697 15.6902 94.7239 15.1781 95.4922 14.1544C96.2595 13.1562 96.6439 11.7229 96.6439 9.9057C96.6439 8.85623 96.5156 7.96026 96.2852 7.24402C96.0554 6.55251 95.7225 5.98982 95.2871 5.55441C94.8522 5.14476 94.3148 4.83816 93.7258 4.65885C93.1116 4.47953 92.4206 4.40275 91.6786 4.40275H87.4554ZM91.5761 7.72992C92.1135 7.72992 92.5232 7.88348 92.856 8.21635C93.1631 8.54922 93.3162 9.11227 93.3162 9.88014C93.3162 10.4174 93.2652 10.827 93.1631 11.1597C93.0606 11.4669 92.9323 11.7229 92.7535 11.902C92.5742 12.0812 92.3954 12.2092 92.1903 12.2603C91.9599 12.3372 91.7554 12.3628 91.5251 12.3628H90.9366V7.72992H91.5761ZM103.81 18.019C103.81 18.4286 103.708 18.7102 103.529 18.8638C103.324 19.0429 103.068 19.1196 102.787 19.1196C102.505 19.1196 102.249 19.0429 102.044 18.8638C101.839 18.7102 101.737 18.4286 101.737 18.019V8.60024C101.737 8.21635 101.839 7.93501 102.044 7.75569C102.249 7.57637 102.505 7.49959 102.787 7.49959C103.068 7.49959 103.324 7.57637 103.529 7.75569C103.708 7.93501 103.81 8.21635 103.81 8.60024V18.019ZM107.342 8.72823C107.342 7.19249 106.984 6.0666 106.242 5.32408C105.5 4.60732 104.348 4.2492 102.787 4.2492C101.379 4.2492 100.252 4.60732 99.4589 5.32408C98.6658 6.0666 98.2562 7.19249 98.2562 8.72823V17.8656C98.2562 20.8601 99.7665 22.3701 102.787 22.3701C104.296 22.3701 105.423 22.0118 106.19 21.2697C106.958 20.5274 107.342 19.4014 107.342 17.8656V8.72823ZM120.421 4.40275V19.0173H118.578V4.40275H115.097V19.0173H113.28V4.40275H109.8V22.2167H123.902V4.40275H120.421ZM132.553 12.9002V22.2167H136.034V4.40275H132.553L129.84 13.8472H129.763V4.40275H126.333V22.2167H129.737L132.476 12.9002H132.553ZM139.438 0.000179291C139.463 0.409828 139.54 0.845245 139.694 1.30591C139.847 1.76657 140.077 2.20147 140.41 2.58535C140.717 2.96975 141.127 3.30211 141.614 3.5582C142.099 3.8143 142.688 3.94209 143.405 3.94209C144.07 3.94209 144.634 3.8143 145.12 3.5582C145.606 3.30211 145.99 2.96975 146.323 2.58535C146.63 2.20147 146.86 1.76657 147.039 1.30591C147.193 0.845245 147.295 0.409828 147.321 0.000179291H144.889C144.864 0.180014 144.838 0.384583 144.787 0.589149C144.71 0.819481 144.634 0.998795 144.505 1.17811C144.378 1.35692 144.224 1.51047 144.045 1.63878C143.865 1.76657 143.635 1.81758 143.405 1.81758C143.2 1.81758 142.996 1.76657 142.816 1.63878C142.637 1.51047 142.458 1.35692 142.33 1.17811C142.176 0.998795 142.048 0.819481 141.972 0.589149C141.895 0.384583 141.844 0.180014 141.818 0.000179291H139.438ZM144.582 12.9002V22.2167H148.063V4.40275H144.582L141.869 13.8472H141.792V4.40275H138.363V22.2167H141.767L144.505 12.9002H144.582Z"
		fill="white" />
	<path fill-rule="evenodd" clip-rule="evenodd"
		d="M146.832 59.9519H65.6289C63.2473 59.9519 61.3 58.0045 61.3 55.6306V30.1533C61.3 27.7796 63.2473 25.8322 65.6289 25.8322H146.832C149.212 25.8322 151.161 27.7796 151.161 30.1533V55.6306C151.161 58.0045 149.212 59.9519 146.832 59.9519Z"
		fill="#ED1C24" />
	<path fill-rule="evenodd" clip-rule="evenodd"
		d="M72.2782 40.6988H71.8428V37.1661H72.2015C72.7647 37.1661 73.1743 37.2686 73.4299 37.4988C73.686 37.7293 73.8143 38.2156 73.8143 38.9068C73.8143 40.1098 73.3021 40.6988 72.2782 40.6988ZM73.9163 46.8422C73.8911 47.1237 73.8143 47.3797 73.7117 47.6102C73.5834 47.8405 73.4299 47.9943 73.2511 48.1221C73.046 48.2501 72.7904 48.327 72.4575 48.327H71.8428V43.9242H72.4833C72.9692 43.9242 73.3531 44.0777 73.6092 44.3593C73.8395 44.6665 73.9673 45.1528 73.9673 45.8696C73.9673 46.2278 73.9421 46.535 73.9163 46.8422ZM75.1963 42.209C75.5291 42.081 75.8363 41.9017 76.0918 41.6714C76.3227 41.4409 76.5272 41.1593 76.6808 40.8522C76.8343 40.545 76.9627 40.2123 77.0394 39.8538C77.1162 39.5211 77.142 39.1626 77.142 38.8043C77.142 37.1661 76.7576 35.9373 75.964 35.0927C75.171 34.2479 73.9673 33.8383 72.3808 33.8383H68.3616V51.6548H72.3035C73.9673 51.6548 75.1963 51.1939 76.0408 50.2982C76.8859 49.402 77.2955 48.0198 77.2955 46.0998C77.2955 45.6904 77.2698 45.2808 77.193 44.8968C77.1162 44.5127 77.0137 44.1288 76.8601 43.7959C76.6808 43.4632 76.4762 43.1816 76.2201 42.9258C75.9388 42.6698 75.6059 42.4648 75.1963 42.337V42.209ZM86.0754 51.6548H89.736L86.3315 33.8383H82.082L78.7033 51.6548H82.3896L82.9265 48.1734H85.538L86.0754 51.6548ZM84.1555 38.446H84.309L84.6934 42.0554L85.0258 44.8968H83.4135L83.7716 42.0554L84.1555 38.446ZM91.2715 33.8383V51.6548H94.7533V45.127H95.5721C97.2874 45.127 98.5416 44.6152 99.3094 43.5912C100.078 42.5929 100.462 41.1593 100.462 39.342C100.462 38.2925 100.334 37.3966 100.103 36.6798C99.8726 35.9886 99.5397 35.4254 99.1048 34.9903C98.6694 34.5807 98.132 34.2735 97.5435 34.0943C96.9288 33.915 96.2378 33.8383 95.4958 33.8383H91.2715ZM95.3933 37.1661C95.9307 37.1661 96.3403 37.3197 96.6727 37.6524C96.9803 37.9853 97.1339 38.5483 97.1339 39.3164C97.1339 39.8538 97.0824 40.2634 96.9803 40.5964C96.8778 40.9035 96.75 41.1593 96.5707 41.3387C96.3914 41.5178 96.2126 41.6458 96.0075 41.697C95.7771 41.7738 95.5721 41.7994 95.3417 41.7994H94.7533V37.1661H95.3933ZM108.32 42.337V51.6548H111.801V33.8383H108.32L105.607 43.2841H105.53V33.8383H102.1V51.6548H105.504L108.243 42.337H108.32ZM120.556 51.6548H124.217L120.812 33.8383H116.563L113.184 51.6548H116.87L117.407 48.1734H120.018L120.556 51.6548ZM118.636 38.446H118.79L119.174 42.0554L119.506 44.8968H117.894L118.252 42.0554L118.636 38.446ZM134.942 51.6548V33.8383H131.461V40.9035H129.233V33.8383H125.752V51.6548H129.233V44.2824H131.461V51.6548H134.942ZM145.258 37.1661V33.8383H136.298V37.1661H139.038V51.6548H142.519V37.1661H145.258Z"
		fill="white" />
</svg>