<svg xmlns="http://www.w3.org/2000/svg"><style>:root svg:not(:target){display:none}</style><svg viewBox="0 0 30 30" fill="none" id="burger"><path d="M3.75 22.5V20H26.25V22.5H3.75ZM3.75 16.25V13.75H26.25V16.25H3.75ZM3.75 10V7.5H26.25V10H3.75Z" fill="#333333" ></path></svg><svg fill="#5E6985" id="cr" viewBox="0 0 367.467 367.467"><g><path d="M183.73,0.018C82.427,0.018,0,82.404,0,183.733c0,101.289,82.427,183.716,183.73,183.716
		c101.315,0,183.737-82.427,183.737-183.716C367.467,82.404,285.045,0.018,183.73,0.018z M183.73,326.518
		c-78.743,0-142.798-64.052-142.798-142.784c0-78.766,64.055-142.817,142.798-142.817c78.752,0,142.807,64.052,142.807,142.817
		C326.536,262.466,262.481,326.518,183.73,326.518z"></path><path d="M244.036,217.014c-11.737,20.141-33.562,32.635-56.956,32.635c-36.329,0-65.921-29.585-65.921-65.915
		c0-36.36,29.592-65.955,65.921-65.955c23.395,0,45.219,12.54,56.956,32.641l1.517,2.627h44.28l-2.658-7.129
		c-7.705-20.413-21.225-37.769-39.122-50.157c-17.942-12.42-39.017-19.009-60.973-19.009c-58.981,0-106.946,48.006-106.946,106.982
		c0,58.98,47.965,106.941,106.946,106.941c21.956,0,43.03-6.567,60.973-19.006c17.897-12.391,31.417-29.741,39.122-50.154
		l2.658-7.133h-44.28L244.036,217.014z"></path></g></svg><svg viewBox="0 0 20 13" fill="none" id="drop"><path id="drop_0" d="M2 2L10 10L18 2" stroke="#171E30" stroke-width="3" stroke-linecap="round"></path></svg><svg viewBox="0 0 20 20" fill="none" id="phone"><path d="M15.8064 12.3893C15.397 11.963 14.9031 11.735 14.3797 11.735C13.8605 11.735 13.3624 11.9587 12.936 12.3851L11.6022 13.7147C11.4924 13.6556 11.3827 13.6008 11.2771 13.5459C11.1252 13.4699 10.9816 13.3982 10.8592 13.3222C9.60978 12.5286 8.47429 11.4944 7.38524 10.1563C6.8576 9.48938 6.50302 8.92797 6.24553 8.35812C6.59166 8.04153 6.91247 7.71229 7.22484 7.3957C7.34303 7.27751 7.46122 7.1551 7.57941 7.0369C8.46585 6.15046 8.46585 5.00232 7.57941 4.11588L6.42704 2.96351C6.29618 2.83265 6.16111 2.69758 6.03447 2.5625C5.78121 2.30079 5.51527 2.03064 5.2409 1.77737C4.83145 1.37214 4.3418 1.15686 3.82682 1.15686C3.31184 1.15686 2.81375 1.37214 2.39163 1.77737C2.38741 1.78159 2.38741 1.78159 2.38319 1.78581L0.948004 3.23366C0.407699 3.77397 0.099556 4.43246 0.0320178 5.19649C-0.0692895 6.42906 0.293728 7.57721 0.572323 8.32857C1.25615 10.1732 2.27766 11.8828 3.80149 13.7147C5.65035 15.9224 7.87489 17.6657 10.416 18.8941C11.3869 19.3542 12.6828 19.8987 14.1306 19.9916C14.2193 19.9958 14.3121 20 14.3965 20C15.3716 20 16.1905 19.6497 16.8321 18.9532C16.8364 18.9447 16.8448 18.9405 16.849 18.9321C17.0685 18.6661 17.3218 18.4255 17.5877 18.168C17.7692 17.995 17.955 17.8135 18.1365 17.6235C18.5544 17.1887 18.7739 16.6822 18.7739 16.163C18.7739 15.6396 18.5501 15.1373 18.1238 14.7152L15.8064 12.3893ZM17.3176 16.8342C17.3134 16.8384 17.3134 16.8342 17.3176 16.8342C17.1529 17.0115 16.9841 17.1719 16.8026 17.3491C16.5282 17.6109 16.2496 17.8852 15.9879 18.1934C15.5616 18.6493 15.0593 18.8645 14.4008 18.8645C14.3375 18.8645 14.2699 18.8645 14.2066 18.8603C12.9529 18.7801 11.7879 18.2905 10.9141 17.8726C8.52495 16.716 6.42704 15.0739 4.68371 12.9929C3.2443 11.258 2.28188 9.65401 1.64449 7.93179C1.25193 6.88072 1.10841 6.06182 1.17172 5.28935C1.21394 4.79548 1.40389 4.38603 1.75424 4.03568L3.19365 2.59627C3.40049 2.4021 3.61998 2.29657 3.83526 2.29657C4.10119 2.29657 4.31647 2.45697 4.45155 2.59205C4.45577 2.59627 4.45999 2.60049 4.46421 2.60471C4.7217 2.84532 4.96653 3.09436 5.22402 3.36029C5.35487 3.49537 5.48995 3.63045 5.62502 3.76974L6.77739 4.92211C7.22484 5.36956 7.22484 5.78323 6.77739 6.23067C6.65498 6.35308 6.53679 6.47549 6.41438 6.59368C6.0598 6.9567 5.72211 7.29439 5.35487 7.62364C5.34643 7.63208 5.33799 7.63631 5.33377 7.64475C4.97075 8.00777 5.03829 8.36234 5.11427 8.60295C5.11849 8.61561 5.12271 8.62827 5.12693 8.64094C5.42663 9.36697 5.84874 10.0508 6.49036 10.8655L6.49458 10.8697C7.65961 12.3049 8.88796 13.4235 10.2429 14.2804C10.416 14.3901 10.5933 14.4788 10.7621 14.5632C10.9141 14.6392 11.0576 14.7109 11.18 14.7869C11.1969 14.7954 11.2138 14.808 11.2307 14.8165C11.3742 14.8882 11.5093 14.922 11.6486 14.922C11.9989 14.922 12.2184 14.7025 12.2902 14.6307L13.7338 13.1871C13.8773 13.0436 14.1053 12.8705 14.3712 12.8705C14.6329 12.8705 14.8482 13.0351 14.9791 13.1787C14.9833 13.1829 14.9833 13.1829 14.9875 13.1871L17.3134 15.5129C17.7481 15.9435 17.7481 16.3867 17.3176 16.8342Z" fill="black" ></path><path d="M10.8084 4.75747C11.9144 4.9432 12.919 5.46662 13.721 6.26863C14.523 7.07065 15.0422 8.07528 15.2322 9.18122C15.2786 9.45981 15.5192 9.65398 15.7936 9.65398C15.8273 9.65398 15.8569 9.64976 15.8907 9.64554C16.203 9.59489 16.4099 9.29941 16.3592 8.98705C16.1313 7.64894 15.4981 6.42904 14.5315 5.4624C13.5648 4.49576 12.3449 3.86258 11.0068 3.63464C10.6944 3.58399 10.4032 3.79083 10.3483 4.09897C10.2934 4.40711 10.4961 4.70681 10.8084 4.75747Z" fill="black" ></path><path d="M19.9771 8.82242C19.6014 6.61899 18.563 4.61395 16.9674 3.01836C15.3718 1.42277 13.3668 0.384369 11.1634 0.00868772C10.8552 -0.0461871 10.564 0.16487 10.5091 0.473013C10.4584 0.785377 10.6653 1.07664 10.9776 1.13151C12.9447 1.46498 14.7387 2.39785 16.1654 3.82037C17.5922 5.24712 18.5208 7.0411 18.8543 9.00815C18.9007 9.28675 19.1413 9.48092 19.4157 9.48092C19.4495 9.48092 19.479 9.4767 19.5128 9.47248C19.8209 9.42604 20.032 9.13056 19.9771 8.82242Z" fill="black" ></path></svg><svg viewBox="0 0 22 22" fill="none" id="telegram"><path 
		d="M10.6562 0.09375C16.5 0.09375 21.3125 4.90625 21.3125 10.75C21.3125 16.6367 16.5 21.4062 10.6562 21.4062C4.76953 21.4062 0 16.6367 0 10.75C0 4.90625 4.76953 0.09375 10.6562 0.09375ZM15.5547 7.35547C15.5977 7.22656 15.5977 7.09766 15.5547 6.92578C15.5547 6.83984 15.4688 6.71094 15.4258 6.66797C15.2969 6.53906 15.082 6.53906 14.9961 6.53906C14.6094 6.53906 13.9648 6.75391 11 8C9.96875 8.42969 7.90625 9.28906 4.8125 10.6641C4.29688 10.8789 4.03906 11.0508 3.99609 11.2656C3.95312 11.6094 4.51172 11.7383 5.15625 11.9531C5.71484 12.125 6.44531 12.3398 6.83203 12.3398C7.17578 12.3398 7.5625 12.2109 7.99219 11.9102C10.8711 9.93359 12.375 8.94531 12.4609 8.94531C12.5469 8.94531 12.6328 8.90234 12.6758 8.94531C12.7617 9.03125 12.7617 9.11719 12.7188 9.16016C12.6758 9.375 9.96875 11.8672 9.79688 12.0391C9.19531 12.6406 8.50781 13.0273 9.58203 13.7148C10.4844 14.3164 11 14.7031 11.9453 15.3047C12.5469 15.6914 13.0195 16.1641 13.6211 16.1211C13.9219 16.0781 14.2227 15.8203 14.3516 15.0039C14.7383 13.1562 15.4258 9.03125 15.5547 7.35547Z"
		fill="#171E30" ></path></svg><svg viewBox="0 0 20 20" fill="none" id="vk"><path 
		d="M1.33203 1.5C2.66406 0.125 4.85547 0.125 9.23828 0.125H9.96875C14.3516 0.125 16.543 0.125 17.875 1.5C19.25 2.83203 19.25 5.02344 19.25 9.40625V10.1367C19.25 14.5195 19.25 16.7109 17.875 18.043C16.543 19.375 14.3516 19.375 9.96875 19.375H9.23828C4.85547 19.375 2.66406 19.375 1.33203 18.043C0 16.7109 0 14.5195 0 10.1367V9.40625C0 5.02344 0 2.83203 1.33203 1.5ZM3.22266 6.01172C3.35156 10.9961 5.84375 14.0039 10.2266 14.0039H10.4844V11.168C11.2578 11.2539 11.9883 11.5547 12.5469 12.0703C13.1484 12.5859 13.5781 13.2734 13.793 14.0039H16.0703C15.8555 13.1445 15.4258 12.3281 14.8672 11.6406C14.2656 10.9531 13.5781 10.3945 12.7617 10.0078C13.4922 9.57812 14.0938 8.97656 14.6094 8.28906C15.082 7.60156 15.4258 6.82812 15.5977 6.01172H13.5352C13.0625 7.60156 11.7305 9.01953 10.4844 9.14844V6.01172H8.42188V11.5547C7.13281 11.2109 5.5 9.66406 5.41406 6.01172H3.22266Z"
		fill="#171E30" ></path></svg><svg viewBox="0 0 20 20" fill="none" id="whatsapp"><path 
		d="M16.3281 2.96094C18.1328 4.76562 19.25 7.12891 19.25 9.70703C19.25 14.9492 14.8672 19.2461 9.58203 19.2461C7.99219 19.2461 6.44531 18.8164 5.02734 18.0859L0 19.375L1.33203 14.4336C0.515625 13.0156 0.0429688 11.3828 0.0429688 9.66406C0.0429688 4.42188 4.33984 0.125 9.58203 0.125C12.1602 0.125 14.5664 1.15625 16.3281 2.96094ZM9.58203 17.6133C13.9648 17.6133 17.6172 14.0469 17.6172 9.70703C17.6172 7.55859 16.7148 5.58203 15.2109 4.07812C13.707 2.57422 11.7305 1.75781 9.625 1.75781C5.24219 1.75781 1.67578 5.32422 1.67578 9.66406C1.67578 11.168 2.10547 12.6289 2.87891 13.918L3.09375 14.2188L2.27734 17.1406L5.28516 16.3242L5.54297 16.4961C6.78906 17.2266 8.16406 17.6133 9.58203 17.6133ZM13.9648 11.6836C14.1797 11.8125 14.3516 11.8555 14.3945 11.9844C14.4805 12.0703 14.4805 12.543 14.2656 13.1016C14.0508 13.6602 13.1055 14.1758 12.6758 14.2188C11.9023 14.3477 11.3008 14.3047 9.79688 13.6172C7.39062 12.5859 5.84375 10.1797 5.71484 10.0508C5.58594 9.87891 4.76953 8.76172 4.76953 7.55859C4.76953 6.39844 5.37109 5.83984 5.58594 5.58203C5.80078 5.32422 6.05859 5.28125 6.23047 5.28125C6.35938 5.28125 6.53125 5.28125 6.66016 5.28125C6.83203 5.28125 7.00391 5.23828 7.21875 5.71094C7.39062 6.18359 7.90625 7.34375 7.94922 7.47266C7.99219 7.60156 8.03516 7.73047 7.94922 7.90234C7.51953 8.80469 7.00391 8.76172 7.26172 9.19141C8.20703 10.7812 9.10938 11.3398 10.5273 12.0273C10.7422 12.1562 10.8711 12.1133 11.043 11.9844C11.1719 11.8125 11.6445 11.2539 11.7734 11.0391C11.9453 10.7812 12.1172 10.8242 12.332 10.9102C12.5469 10.9961 13.707 11.5547 13.9648 11.6836Z"
		fill="#171E30" ></path></svg></svg>