<svg xmlns="http://www.w3.org/2000/svg"><style>:root svg:not(:target){display:none}</style><svg viewBox="0 0 20 13" fill="none" id="drop"><path id="drop_0" d="M2 2L10 10L18 2" stroke="#171E30" stroke-width="3" stroke-linecap="round"></path></svg><svg viewBox="0 0 22 22" fill="none" id="telegram"><path 
		d="M10.6562 0.09375C16.5 0.09375 21.3125 4.90625 21.3125 10.75C21.3125 16.6367 16.5 21.4062 10.6562 21.4062C4.76953 21.4062 0 16.6367 0 10.75C0 4.90625 4.76953 0.09375 10.6562 0.09375ZM15.5547 7.35547C15.5977 7.22656 15.5977 7.09766 15.5547 6.92578C15.5547 6.83984 15.4688 6.71094 15.4258 6.66797C15.2969 6.53906 15.082 6.53906 14.9961 6.53906C14.6094 6.53906 13.9648 6.75391 11 8C9.96875 8.42969 7.90625 9.28906 4.8125 10.6641C4.29688 10.8789 4.03906 11.0508 3.99609 11.2656C3.95312 11.6094 4.51172 11.7383 5.15625 11.9531C5.71484 12.125 6.44531 12.3398 6.83203 12.3398C7.17578 12.3398 7.5625 12.2109 7.99219 11.9102C10.8711 9.93359 12.375 8.94531 12.4609 8.94531C12.5469 8.94531 12.6328 8.90234 12.6758 8.94531C12.7617 9.03125 12.7617 9.11719 12.7188 9.16016C12.6758 9.375 9.96875 11.8672 9.79688 12.0391C9.19531 12.6406 8.50781 13.0273 9.58203 13.7148C10.4844 14.3164 11 14.7031 11.9453 15.3047C12.5469 15.6914 13.0195 16.1641 13.6211 16.1211C13.9219 16.0781 14.2227 15.8203 14.3516 15.0039C14.7383 13.1562 15.4258 9.03125 15.5547 7.35547Z"
		fill="#171E30" ></path></svg><svg viewBox="0 0 20 20" fill="none" id="vk"><path 
		d="M1.33203 1.5C2.66406 0.125 4.85547 0.125 9.23828 0.125H9.96875C14.3516 0.125 16.543 0.125 17.875 1.5C19.25 2.83203 19.25 5.02344 19.25 9.40625V10.1367C19.25 14.5195 19.25 16.7109 17.875 18.043C16.543 19.375 14.3516 19.375 9.96875 19.375H9.23828C4.85547 19.375 2.66406 19.375 1.33203 18.043C0 16.7109 0 14.5195 0 10.1367V9.40625C0 5.02344 0 2.83203 1.33203 1.5ZM3.22266 6.01172C3.35156 10.9961 5.84375 14.0039 10.2266 14.0039H10.4844V11.168C11.2578 11.2539 11.9883 11.5547 12.5469 12.0703C13.1484 12.5859 13.5781 13.2734 13.793 14.0039H16.0703C15.8555 13.1445 15.4258 12.3281 14.8672 11.6406C14.2656 10.9531 13.5781 10.3945 12.7617 10.0078C13.4922 9.57812 14.0938 8.97656 14.6094 8.28906C15.082 7.60156 15.4258 6.82812 15.5977 6.01172H13.5352C13.0625 7.60156 11.7305 9.01953 10.4844 9.14844V6.01172H8.42188V11.5547C7.13281 11.2109 5.5 9.66406 5.41406 6.01172H3.22266Z"
		fill="#171E30" ></path></svg><svg viewBox="0 0 20 20" fill="none" id="whatsapp"><path 
		d="M16.3281 2.96094C18.1328 4.76562 19.25 7.12891 19.25 9.70703C19.25 14.9492 14.8672 19.2461 9.58203 19.2461C7.99219 19.2461 6.44531 18.8164 5.02734 18.0859L0 19.375L1.33203 14.4336C0.515625 13.0156 0.0429688 11.3828 0.0429688 9.66406C0.0429688 4.42188 4.33984 0.125 9.58203 0.125C12.1602 0.125 14.5664 1.15625 16.3281 2.96094ZM9.58203 17.6133C13.9648 17.6133 17.6172 14.0469 17.6172 9.70703C17.6172 7.55859 16.7148 5.58203 15.2109 4.07812C13.707 2.57422 11.7305 1.75781 9.625 1.75781C5.24219 1.75781 1.67578 5.32422 1.67578 9.66406C1.67578 11.168 2.10547 12.6289 2.87891 13.918L3.09375 14.2188L2.27734 17.1406L5.28516 16.3242L5.54297 16.4961C6.78906 17.2266 8.16406 17.6133 9.58203 17.6133ZM13.9648 11.6836C14.1797 11.8125 14.3516 11.8555 14.3945 11.9844C14.4805 12.0703 14.4805 12.543 14.2656 13.1016C14.0508 13.6602 13.1055 14.1758 12.6758 14.2188C11.9023 14.3477 11.3008 14.3047 9.79688 13.6172C7.39062 12.5859 5.84375 10.1797 5.71484 10.0508C5.58594 9.87891 4.76953 8.76172 4.76953 7.55859C4.76953 6.39844 5.37109 5.83984 5.58594 5.58203C5.80078 5.32422 6.05859 5.28125 6.23047 5.28125C6.35938 5.28125 6.53125 5.28125 6.66016 5.28125C6.83203 5.28125 7.00391 5.23828 7.21875 5.71094C7.39062 6.18359 7.90625 7.34375 7.94922 7.47266C7.99219 7.60156 8.03516 7.73047 7.94922 7.90234C7.51953 8.80469 7.00391 8.76172 7.26172 9.19141C8.20703 10.7812 9.10938 11.3398 10.5273 12.0273C10.7422 12.1562 10.8711 12.1133 11.043 11.9844C11.1719 11.8125 11.6445 11.2539 11.7734 11.0391C11.9453 10.7812 12.1172 10.8242 12.332 10.9102C12.5469 10.9961 13.707 11.5547 13.9648 11.6836Z"
		fill="#171E30" ></path></svg></svg>